<svg version="1.1" id="Layer_1" xmlns="http://www.w3.org/2000/svg" xmlns:xlink="http://www.w3.org/1999/xlink" viewBox="0 0 512 512" xml:space="preserve" width="134px" height="134px" fill="#000000"><g id="SVGRepo_bgCarrier" stroke-width="0"></g><g id="SVGRepo_tracerCarrier" stroke-linecap="round" stroke-linejoin="round"></g><g id="SVGRepo_iconCarrier"> <path style="fill:#373939;" d="M502.856,188.034c-11.36-41.407-33.296-80.519-65.829-113.052 c-99.975-99.976-262.07-99.976-362.045,0s-99.976,262.07,0,362.045c32.533,32.533,71.645,54.469,113.052,65.829L502.856,188.034z"></path> <path style="fill:#222625;" d="M437.027,437.026c67.444-67.444,89.379-163.153,65.829-248.993l-65.829-65.829l-86.576,39.352 L98.594,413.415l89.44,89.44C273.875,526.406,369.584,504.47,437.027,437.026z"></path> <rect x="272.424" y="189.495" transform="matrix(-0.7071 -0.7071 0.7071 -0.7071 322.5187 590.4947)" style="fill:#889391;" width="22.261" height="77.914"></rect> <polygon style="fill:#9fa3a2;" points="288.578,271.434 248.134,248.134 98.594,413.415 318.969,350.451 "></polygon> <polygon style="fill:#373939;" points="279.616,248.134 271.746,240.263 238.69,257.578 221.374,290.635 288.578,271.434 "></polygon> <polygon style="fill:#9fa3a2;" points="264.577,247.433 98.594,413.415 161.558,193.039 240.574,223.431 "></polygon> <polygon style="fill:#889391;" points="263.875,232.393 271.746,240.263 221.374,290.635 240.576,223.431 "></polygon> <polygon style="fill:#403f3a;" points="413.415,98.594 366.193,114.335 421.286,137.946 437.027,122.205 "></polygon> <g> <polygon style="fill:#514d3d;" points="389.804,74.981 374.063,90.723 381.933,130.076 413.415,98.594 "></polygon> <polygon style="fill:#514d3d;" points="397.674,114.335 287.487,193.039 342.581,216.652 421.286,137.946 "></polygon> </g> <polygon style="fill:#FEF2CC;" points="374.063,90.723 295.357,169.428 303.228,208.781 397.674,114.335 "></polygon> <polygon style="fill:#9fa3a2;" points="318.969,193.039 299.293,196.975 295.357,216.652 318.969,240.263 342.581,216.652 "></polygon> <rect x="278.653" y="176.346" transform="matrix(-0.7071 0.7071 -0.7071 -0.7071 640.6931 120.7004)" style="fill:#D8F4F2;" width="33.392" height="33.392"></rect> <g> <rect x="193.724" y="311.774" transform="matrix(-0.7071 -0.7071 0.7071 -0.7071 121.38 696.0858)" style="fill:#65817b;" width="22.261" height="22.261"></rect> <rect x="240.934" y="311.757" transform="matrix(-0.7071 -0.7071 0.7071 -0.7071 201.9854 729.4406)" style="fill:#65817b;" width="22.261" height="22.261"></rect> </g> </g></svg>